<?xml version="1.0" standalone="no"?>
<!DOCTYPE svg PUBLIC "-//W3C//DTD SVG 20010904//EN"
 "http://www.w3.org/TR/2001/REC-SVG-20010904/DTD/svg10.dtd">
<svg version="1.0" xmlns="http://www.w3.org/2000/svg"
 width="273.000000pt" height="273.000000pt" viewBox="0 0 273.000000 273.000000"
 preserveAspectRatio="xMidYMid meet">
<metadata>
Created by potrace 1.14, written by Peter Selinger 2001-2017
</metadata>
<g transform="translate(0.000000,273.000000) scale(0.100000,-0.100000)"
fill="#000000" stroke="none">
<path d="M1287 2679 c-66 -16 -139 -62 -213 -134 -136 -134 -272 -214 -389
-230 -99 -13 -102 -14 -120 -53 -9 -20 -22 -47 -28 -58 -15 -26 -84 -104 -92
-104 -3 0 -21 -14 -39 -30 -31 -29 -121 -90 -132 -90 -2 0 -34 -18 -69 -41
-87 -55 -151 -128 -170 -193 -22 -80 -12 -126 56 -245 84 -146 105 -259 71
-378 l-20 -72 31 -24 c57 -44 73 -61 114 -122 43 -62 78 -162 88 -243 20 -168
51 -292 75 -300 6 -2 10 -10 10 -17 0 -7 24 -35 54 -62 88 -81 146 -95 396
-98 177 -2 214 -5 270 -23 71 -23 157 -73 179 -104 13 -19 14 -19 45 10 65 61
137 96 223 108 26 4 125 7 218 7 179 -1 250 7 314 35 100 45 178 161 195 292
42 306 82 399 225 518 l33 29 -17 77 c-23 103 -17 199 18 263 103 195 102 193
104 272 1 62 -3 85 -23 126 -29 59 -103 130 -171 165 -56 28 -122 69 -141 87
-7 7 -17 13 -22 13 -23 0 -131 125 -161 185 -31 64 -32 65 -73 65 -131 0 -285
78 -437 222 -70 66 -84 77 -138 107 -83 46 -179 60 -264 40z m191 -37 c61 -24
119 -63 201 -138 92 -85 154 -130 227 -164 61 -29 173 -59 221 -60 17 0 29
-13 50 -56 47 -97 176 -209 328 -287 115 -58 187 -157 186 -256 0 -69 -18
-120 -71 -210 -23 -39 -48 -90 -55 -116 -17 -53 -14 -181 5 -241 l12 -41 -69
-69 c-100 -99 -156 -226 -169 -383 -12 -139 -57 -261 -120 -325 -70 -69 -142
-85 -382 -84 -103 1 -203 -2 -222 -6 -82 -18 -176 -62 -226 -108 -16 -14 -24
-16 -29 -8 -15 24 -113 79 -180 100 -62 20 -93 23 -270 25 -110 1 -216 5 -235
9 -98 23 -184 93 -225 183 -24 51 -29 76 -60 278 -20 135 -65 225 -155 315
l-67 67 13 43 c34 113 17 240 -48 360 -22 41 -50 92 -61 113 -64 122 -1 251
171 347 166 94 305 219 338 306 15 39 21 44 48 45 71 1 156 28 243 74 71 39
82 47 177 135 114 105 160 135 246 164 36 11 133 5 178 -12z"/>
<path d="M1285 2613 c-64 -16 -133 -62 -241 -164 -33 -31 -89 -75 -124 -98
-71 -46 -200 -91 -260 -91 -38 0 -40 -2 -65 -54 -45 -94 -141 -181 -314 -282
-203 -119 -248 -250 -142 -419 63 -101 84 -167 84 -265 0 -55 -5 -101 -16
-130 -15 -42 -15 -45 1 -54 44 -23 122 -118 155 -187 37 -77 52 -140 61 -249
23 -275 180 -393 496 -374 118 7 223 -6 303 -37 49 -19 112 -61 133 -88 10
-12 18 -9 54 22 96 82 165 98 430 101 184 2 211 5 260 24 129 51 193 163 219
382 22 174 84 304 181 377 54 41 52 31 29 138 -21 100 -3 208 47 282 47 70 68
127 72 196 8 132 -51 213 -222 307 -123 68 -241 177 -276 258 -21 46 -27 52
-54 52 -43 1 -143 24 -190 43 -57 25 -163 100 -231 163 -119 112 -205 155
-308 153 -34 -1 -71 -3 -82 -6z"/>
</g>
</svg>
